<svg xmlns="http://www.w3.org/2000/svg" viewBox="0 0 145 196" width="145" height="196">
	<style>
		tspan { white-space:pre }
		.shp0 { fill: #29d03d } 
		.shp1 { fill: #ffffff } 
	</style>
	<g id="Layer_2">
		<g id="Layer_1-2">
			<path id="Layer" class="shp0" d="M72.17,0c-39.84,0.05 -72.12,32.33 -72.17,72.17c-0.01,4.55 0.42,9.08 1.28,13.55c0,0.26 9.59,50.16 67.71,109.14c1.87,1.51 4.55,1.51 6.42,0c52,-51.86 66.13,-101.86 67.23,-106.73c0.3,-1.36 0.45,-2.15 0.49,-2.42c0.84,-4.47 1.27,-9 1.28,-13.55c-0.12,-39.84 -32.4,-72.09 -72.24,-72.16z" />
			<path id="Layer" class="shp0" d="M131.42,72.9c0,-32.77 -26.49,-59.26 -59.26,-59.26c-32.77,0 -59.26,26.49 -59.26,59.26c0,32.77 26.49,59.26 59.26,59.26c32.77,0 59.26,-26.49 59.26,-59.26z" />
			<path id="Layer" class="shp1" d="M72.2,13.64c-27.66,-0.02 -51.65,19.13 -57.75,46.11c-6.1,26.98 7.3,54.59 32.28,66.47l1.84,-35.8c0,0 -3.49,-1.16 -4.24,-1.52c-7.39,-3.25 -12.77,-12.85 -12.77,-25.3c0,-13.56 10.52,-25.26 20.72,-25.37v0c10.22,0.11 20.72,11.77 20.72,25.37c0,12.45 -5.37,22 -12.77,25.31l-4.23,1.56l2.08,39.81c10.9,2.77 22.36,2.31 33,-1.33l1.84,-35.47c-4.72,-1.1 -8.85,-3.96 -11.54,-8c-3.21,-4.78 2.46,-47.22 2.46,-47.22h3.69v39.8h3.66v-39.83h4v39.83h3.66v-39.83h4.14v39.83h3.66v-39.83h2.83c0,0 5.65,42.45 2.46,47.24c-2.67,4 -6.74,6.86 -11.42,8c-0.05,0.01 -0.1,0.03 -0.15,0.06l1.53,30.47c23.16,-13.42 34.42,-40.72 27.46,-66.57c-6.96,-25.85 -30.4,-43.8 -57.16,-43.79z" />
			<path id="Layer" class="shp1" d="M40.22,57.61c0.21,-0.88 0.51,-1.69 0.51,-1.72c0.09,-0.36 -0.09,-0.73 -0.43,-0.89c-0.31,-0.17 -0.7,-0.09 -0.92,0.19l-1,1.61c-0.7,1.18 -1.26,2.45 -1.65,3.77c-0.55,1.78 -0.94,3.61 -1.16,5.46c-0.09,1.12 -0.1,2.12 -0.09,3.15c0.08,1.14 0.29,2.27 0.63,3.36c1.16,3.32 2.06,6.51 5.29,9.66c0.85,0.86 1.8,1.63 2.82,2.29l0.26,0.19l0.52,0.32c0.37,0.2 0.76,0.35 1.16,0.47c0.3,0.08 0.62,-0.05 0.77,-0.32c0.12,-0.3 0.02,-0.64 -0.24,-0.83c-0.3,-0.28 -0.59,-0.59 -0.84,-0.92c-0.39,-0.47 -0.75,-0.97 -1.09,-1.48c-0.28,-0.43 -0.62,-0.9 -0.94,-1.37c-1.56,-2.4 -2.48,-5.74 -3.72,-9.19c-0.27,-0.82 -0.45,-1.67 -0.54,-2.53c-0.09,-0.94 -0.15,-1.86 -0.15,-2.7c-0.03,-1.67 0.05,-3.34 0.24,-5c0.1,-1.19 0.32,-2.36 0.63,-3.51z" />
			<path id="Layer" class="shp1" d="null" />
		</g>
	</g>
</svg>