<svg xmlns="http://www.w3.org/2000/svg" viewBox="0 0 145 196" width="145" height="196">
	<style>
		tspan { white-space:pre }
		.shp0 { fill: #29d03d } 
		.shp1 { fill: #ffffff } 
		.shp2 { fill: #231f20 } 
	</style>
	<g id="Layer_2">
		<g id="Layer_1-2">
			<path id="Layer" class="shp0" d="M72.17,0c-39.84,0.05 -72.12,32.33 -72.17,72.17c-0.01,4.55 0.42,9.08 1.28,13.55c0,0.26 9.59,50.16 67.71,109.14c1.87,1.51 4.55,1.51 6.42,0c52,-51.86 66.13,-101.86 67.23,-106.73c0.3,-1.36 0.45,-2.15 0.49,-2.42c0.84,-4.47 1.27,-9 1.28,-13.55c-0.12,-39.84 -32.4,-72.09 -72.24,-72.16z" />
			<path id="Layer" class="shp1" d="M131.46,72.9c0,-32.77 -26.49,-59.26 -59.26,-59.26c-32.77,0 -59.26,26.49 -59.26,59.26c0,32.77 26.49,59.26 59.26,59.26c32.77,0 59.26,-26.49 59.26,-59.26z" />
			<path id="Layer" class="shp0" d="M72.2,20.31c-24.67,-0.01 -46.05,17.07 -51.49,41.12c-5.44,24.06 6.5,48.68 28.77,59.29l1.65,-31.92c0,0 -3.12,-1 -3.78,-1.36c-6.6,-2.91 -11.35,-11.44 -11.35,-22.57c0,-12.09 9.38,-22.53 18.48,-22.62v0c9.07,0.1 18.48,10.53 18.48,22.62c0,11.1 -4.79,19.66 -11.39,22.57l-3.82,1.39l1.85,35.5c9.71,2.46 19.92,2.05 29.4,-1.18l1.64,-31.64c-4.22,-0.98 -7.9,-3.54 -10.3,-7.15c-2.87,-4.26 2.2,-42.12 2.2,-42.12h3.29v35.53h3.27v-35.52h3.55v35.52h3.27v-35.52h3.68v35.52h3.27v-35.52h2.52c0,0 5,37.86 2.2,42.14c-2.38,3.56 -6.02,6.1 -10.18,7.11c-0.05,0.01 -0.09,0.03 -0.13,0.05l1.41,27.21c20.68,-11.96 30.74,-36.32 24.54,-59.39c-6.21,-23.07 -27.14,-39.09 -51.03,-39.06z" />
			<path id="Layer" class="shp0" d="M43.68,59.52c0.19,-0.79 0.46,-1.51 0.46,-1.53c0.06,-0.31 -0.09,-0.62 -0.38,-0.76c-0.28,-0.15 -0.63,-0.08 -0.82,0.17l-0.94,1.43c-0.63,1.05 -1.12,2.18 -1.47,3.36c-0.48,1.59 -0.82,3.22 -1,4.87c-0.08,1 -0.09,1.89 -0.08,2.81c0.07,1.02 0.26,2.02 0.56,3c1,3 1.83,5.81 4.72,8.62c0.76,0.76 1.61,1.43 2.52,2l0.23,0.17l0.42,0.27c0.32,0.17 0.65,0.31 1,0.42c0.27,0.07 0.55,-0.04 0.69,-0.28c0.11,-0.27 0.02,-0.57 -0.21,-0.74c-0.27,-0.25 -0.52,-0.53 -0.75,-0.82c-0.36,-0.42 -0.69,-0.86 -1,-1.32c-0.25,-0.38 -0.55,-0.8 -0.84,-1.22c-1.39,-2.14 -2.22,-5.12 -3.32,-8.2c-0.24,-0.72 -0.39,-1.47 -0.47,-2.22c-0.08,-0.84 -0.14,-1.66 -0.14,-2.41c-0.03,-1.5 0.04,-3 0.21,-4.49c0.09,-1.06 0.28,-2.11 0.56,-3.13z" />
			<path id="Layer" class="shp2" d="null" />
		</g>
	</g>
</svg>